HIERARCHY
ROOT Hips
{
	OFFSET 0.000000 0.000000 0.000000
	CHANNELS 6 Xposition Yposition Zposition Zrotation Yrotation Xrotation 
	JOINT LeftUpLeg_virtual
	{
		OFFSET 0.000000 0.000000 0.000000
		CHANNELS 3 Zrotation Yrotation Xrotation
		JOINT LeftUpLeg
		{
			OFFSET 8.479694 -4.795517 -0.379053
			CHANNELS 3 Zrotation Yrotation Xrotation
			JOINT LeftLeg
			{
				OFFSET 0.485052 -32.551468 0.112863
				CHANNELS 3 Zrotation Yrotation Xrotation
				JOINT LeftFoot
				{
					OFFSET 0.438033 -32.635670 -3.012641
					CHANNELS 3 Zrotation Yrotation Xrotation
					JOINT LeftToeBase
					{
						OFFSET 0.970169 -13.225353 11.864223
						CHANNELS 3 Zrotation Yrotation Xrotation
						End Site
						{
							OFFSET 0.000000 0.000000 0.000000
						}
					}
				}
			}
		}
	}
	JOINT RightUpLeg_virtual
	{
		OFFSET 0.000000 0.000000 0.000000
		CHANNELS 3 Zrotation Yrotation Xrotation
		JOINT RightUpLeg
		{
			OFFSET -8.479694 -4.795517 -0.379053
			CHANNELS 3 Zrotation Yrotation Xrotation
			JOINT RightLeg
			{
				OFFSET -0.484100 -32.551483 0.112903
				CHANNELS 3 Zrotation Yrotation Xrotation
				JOINT RightFoot
				{
					OFFSET -0.438985 -32.635651 -3.012681
					CHANNELS 3 Zrotation Yrotation Xrotation
					JOINT RightToeBase
					{
						OFFSET -0.970169 -13.225354 11.864223
						CHANNELS 3 Zrotation Yrotation Xrotation
						End Site
						{
							OFFSET 0.000000 0.000000 0.000000
						}
					}
				}
			}
		}
	}
	JOINT Spine_virtual
	{
		OFFSET 0.000000 0.000000 0.000000
		CHANNELS 3 Zrotation Yrotation Xrotation
		JOINT Spine
		{
			OFFSET 0.000000 7.722015 1.166203
			CHANNELS 3 Zrotation Yrotation Xrotation
			JOINT Spine1
			{
				OFFSET 0.000000 12.024086 0.248766
				CHANNELS 3 Zrotation Yrotation Xrotation
				JOINT Spine2
				{
					OFFSET -0.000000 11.503036 -0.491240
					CHANNELS 3 Zrotation Yrotation Xrotation
					JOINT Neck_virtual
					{
						OFFSET 0.000000 0.000000 0.000000
						CHANNELS 3 Zrotation Yrotation Xrotation
						JOINT Neck
						{
							OFFSET 0.000000 18.430687 -3.123054
							CHANNELS 3 Zrotation Yrotation Xrotation
							JOINT Head
							{
								OFFSET -0.000000 9.051071 1.034021
								CHANNELS 3 Zrotation Yrotation Xrotation
								End Site
								{
									OFFSET 0.000000 0.000000 0.000000
								}
							}
						}
					}
					JOINT LeftShoulder_virtual
					{
						OFFSET 0.000000 0.000000 0.000000
						CHANNELS 3 Zrotation Yrotation Xrotation
						JOINT LeftShoulder
						{
							OFFSET 6.197824 13.665230 -4.064723
							CHANNELS 3 Zrotation Yrotation Xrotation
							JOINT LeftArm
							{
								OFFSET 7.778132 -0.187073 -1.709282
								CHANNELS 3 Zrotation Yrotation Xrotation
								JOINT LeftForeArm
								{
									OFFSET 21.954697 0.000000 -2.041093
									CHANNELS 3 Zrotation Yrotation Xrotation
									JOINT LeftHand
									{
										OFFSET 22.992908 0.000000 -0.870901
										CHANNELS 3 Zrotation Yrotation Xrotation
										End Site
										{
											OFFSET 0.000000 0.000000 0.000000
										}
									}
								}
							}
						}
					}
					JOINT RightShoulder_virtual
					{
						OFFSET 0.000000 0.000000 0.000000
						CHANNELS 3 Zrotation Yrotation Xrotation
						JOINT RightShoulder
						{
							OFFSET -6.197824 13.665230 -4.064723
							CHANNELS 3 Zrotation Yrotation Xrotation
							JOINT RightArm
							{
								OFFSET -7.778132 -0.187073 -1.709282
								CHANNELS 3 Zrotation Yrotation Xrotation
								JOINT RightForeArm
								{
									OFFSET -21.954697 0.000000 -2.041093
									CHANNELS 3 Zrotation Yrotation Xrotation
									JOINT RightHand
									{
										OFFSET -22.992908 0.000000 -0.870901
										CHANNELS 3 Zrotation Yrotation Xrotation
										End Site
										{
											OFFSET 0.000000 0.000000 0.000000
										}
									}
								}
							}
						}
					}
				}
			}
		}
	}
}
MOTION
Frames: 8
Frame Time: 0.033333
3.084640 82.073112 10.262612 179.924709 4.282406 179.882034 -4.227902 0.289755 11.183037 -0.184115 -0.574783 -23.963999 4.594554 3.921492 24.210278 -5.190932 -7.156710 -7.246678 0.000000 0.000000 0.000000 -0.315393 -1.110997 10.869215 0.020267 -3.993726 -17.548720 -0.949078 2.574531 24.099742 9.280094 8.813388 -7.818903 0.000000 0.000000 0.000000 3.302530 2.284988 0.322088 -6.803030 0.299563 -1.314537 1.524018 -3.252687 3.764726 0.021003 0.039677 -0.013988 1.163072 -2.135426 4.946462 -0.056147 1.867208 -15.866130 0.000000 0.000000 0.000000 2.498726 -1.297158 2.382744 7.730946 3.647080 -4.702824 -12.497110 2.178856 -42.963970 -4.817344 -15.731773 -7.233927 0.000000 0.000000 0.000000 -1.226984 -0.074923 1.711784 6.169536 -9.914557 -4.676292 8.745186 -7.702765 -49.908646 -0.195546 26.408626 -2.870494 0.000000 0.000000 0.000000 
3.106325 82.077728 10.159977 179.867144 4.535935 179.869221 -4.279861 0.497113 11.172562 -0.208764 -0.541870 -23.928577 4.576303 3.993056 24.082482 -5.169070 -7.134914 -7.340090 0.000000 0.000000 0.000000 -0.234311 -1.240815 10.797420 0.205228 -4.557333 -17.572171 -0.778407 2.335801 23.985802 9.514769 9.098568 -8.043868 0.000000 0.000000 0.000000 3.232300 2.298454 0.248120 -6.847768 0.325910 -1.316600 1.491319 -3.227522 3.813292 0.007570 0.064630 -0.033683 1.140428 -2.151138 4.902986 -0.059074 1.835766 -15.885225 0.000000 0.000000 0.000000 2.522175 -1.185984 2.387585 7.791385 3.653648 -4.405183 -12.461719 2.164865 -43.039812 -4.667940 -15.772763 -7.254731 0.000000 0.000000 0.000000 -1.180892 -0.039173 1.736135 6.184802 -9.879449 -4.844343 8.762281 -7.649073 -49.948811 -0.040994 26.384435 -2.707497 0.000000 0.000000 0.000000 
3.125091 82.073563 10.028082 179.870013 4.476453 179.891965 -4.260739 0.425529 11.155015 -0.190754 -0.474223 -23.862960 4.601571 4.007736 24.200851 -5.187501 -7.156708 -7.436608 0.000000 0.000000 0.000000 -0.232511 -1.270269 10.790406 0.229768 -4.572156 -17.514705 -0.779917 2.317410 24.052680 9.511639 9.071181 -8.092363 0.000000 0.000000 0.000000 3.218659 2.282693 0.143177 -6.834210 0.316253 -1.352346 1.518838 -3.236195 3.802190 0.022184 0.045088 -0.019665 1.175519 -2.107139 4.898965 -0.022877 1.898377 -15.867390 0.000000 0.000000 0.000000 2.528290 -1.233005 2.386350 7.819198 3.725357 -4.692308 -12.475154 2.285815 -43.094105 -4.842671 -15.766401 -7.072466 0.000000 0.000000 0.000000 -1.186240 -0.065006 1.726831 6.239393 -9.921789 -4.734213 8.832292 -7.722657 -50.054003 -0.162346 26.343881 -2.854829 0.000000 0.000000 0.000000 
3.133023 82.064240 9.904629 179.852691 4.453369 179.900530 -4.287859 0.382130 11.148248 -0.188705 -0.391760 -23.806063 4.586429 4.040742 24.330534 -5.227113 -7.205161 -7.534333 0.000000 0.000000 0.000000 -0.261809 -1.262282 10.776522 0.236377 -4.537326 -17.479916 -0.788909 2.355835 24.139097 9.500085 9.025471 -8.141497 0.000000 0.000000 0.000000 3.198452 2.291766 0.086504 -6.836185 0.317588 -1.387425 1.517513 -3.242434 3.807822 0.049085 0.051417 -0.043592 1.153878 -2.127234 4.935347 -0.030524 1.913374 -15.840775 0.000000 0.000000 0.000000 2.521209 -1.234668 2.417186 7.832574 3.781311 -4.706702 -12.470531 2.419814 -43.105730 -4.861376 -15.756601 -7.024710 0.000000 0.000000 0.000000 -1.203899 -0.057594 1.750698 6.279667 -9.946765 -4.780040 8.976178 -7.788775 -50.135651 -0.204904 26.332012 -2.919362 0.000000 0.000000 0.000000 
3.137306 82.050697 9.805717 179.875299 4.568835 179.894998 -4.271674 0.426995 11.162203 -0.162477 -0.316962 -23.774630 4.549929 4.108748 24.454919 -5.254443 -7.236159 -7.663886 0.000000 0.000000 0.000000 -0.271486 -1.206394 10.767942 0.248773 -4.423213 -17.463011 -0.788091 2.390496 24.248036 9.501086 8.986430 -8.181223 0.000000 0.000000 0.000000 3.217367 2.292837 0.074025 -6.798647 0.310150 -1.436103 1.518426 -3.253457 3.788026 0.032011 0.043419 -0.043363 1.162948 -2.149553 4.941634 -0.058193 1.900467 -15.837064 0.000000 0.000000 0.000000 2.542168 -1.264351 2.382333 7.784565 3.810838 -4.682352 -12.502373 2.603086 -43.060504 -4.870814 -15.765757 -6.956909 0.000000 0.000000 0.000000 -1.208756 -0.043787 1.778914 6.283306 -9.947624 -4.796447 9.081587 -7.873342 -50.359702 -0.224481 26.347361 -2.986164 0.000000 0.000000 0.000000 
3.138268 82.042252 9.742955 179.895530 4.635006 179.899779 -4.250295 0.415569 11.166301 -0.189281 -0.232659 -23.766786 4.584651 4.168768 24.527004 -5.224626 -7.243702 -7.724213 0.000000 0.000000 0.000000 -0.282140 -1.194109 10.743531 0.253618 -4.341103 -17.465463 -0.794727 2.457660 24.324373 9.503883 8.934491 -8.186336 0.000000 0.000000 0.000000 3.189732 2.263943 0.046012 -6.786759 0.276277 -1.445907 1.518670 -3.277044 3.790073 0.067624 0.029589 -0.036904 1.106812 -2.184457 4.873956 -0.048364 1.960699 -15.832517 0.000000 0.000000 0.000000 2.521193 -1.248828 2.322844 7.841908 3.893362 -4.693254 -12.482866 2.786165 -43.006126 -4.885626 -15.812306 -6.799147 0.000000 0.000000 0.000000 -1.204909 -0.085881 1.798573 6.380215 -9.932046 -4.889700 9.231735 -7.847152 -50.549390 -0.197344 26.375721 -2.973811 0.000000 0.000000 0.000000 
3.139974 82.036232 9.703743 179.833143 4.753287 179.924531 -4.337731 0.356557 11.155904 -0.172777 -0.185697 -23.786916 4.566832 4.124167 24.612401 -5.189177 -7.218152 -7.802242 0.000000 0.000000 0.000000 -0.324253 -1.187326 10.701056 0.234781 -4.303079 -17.496375 -0.775812 2.517707 24.413686 9.549053 8.920447 -8.189570 0.000000 0.000000 0.000000 3.143461 2.195279 0.065979 -6.775916 0.243558 -1.471871 1.484551 -3.149604 3.781876 0.044254 -0.029708 -0.020083 1.150226 -2.126434 4.858216 -0.071353 2.018258 -15.801054 0.000000 0.000000 0.000000 2.550200 -1.178744 2.291029 7.809802 3.877087 -4.632490 -12.508028 2.871755 -42.961576 -4.925952 -15.815853 -6.663348 0.000000 0.000000 0.000000 -1.152410 -0.018288 1.719748 6.362272 -9.851826 -4.950644 9.408580 -8.104772 -50.660121 -0.185086 26.522555 -2.993361 0.000000 0.000000 0.000000 
3.141055 82.030273 9.668545 179.853183 4.828289 179.905803 -4.334281 0.286935 11.161966 -0.175827 -0.146241 -23.784215 4.641776 4.143074 24.734296 -5.125435 -7.157348 -7.890441 0.000000 0.000000 0.000000 -0.335459 -1.246150 10.699498 0.237151 -4.226215 -17.513377 -0.771213 2.576676 24.500092 9.588341 8.877121 -8.172432 0.000000 0.000000 0.000000 3.104166 2.204368 0.103750 -6.738917 0.295424 -1.455562 1.488952 -3.258270 3.776579 0.060095 0.020598 -0.028782 1.113815 -2.156921 4.825789 -0.059573 2.013897 -15.791211 0.000000 0.000000 0.000000 2.511599 -1.203648 2.291224 7.883742 3.847155 -4.739122 -12.497030 2.981200 -42.928466 -4.953795 -15.842631 -6.509137 0.000000 0.000000 0.000000 -1.242137 -0.008646 1.672603 6.473937 -9.788492 -4.891735 9.537172 -8.363682 -50.793375 -0.076095 26.651542 -2.906842 0.000000 0.000000 0.000000 
